<?xml version="1.0" encoding="UTF-8" standalone="no"?>
<!DOCTYPE svg PUBLIC "-//W3C//DTD SVG 1.1//EN" "http://www.w3.org/Graphics/SVG/1.1/DTD/svg11.dtd">
<svg xmlns="http://www.w3.org/2000/svg" version="1.1" viewBox="0.00 0.00 1251.00 265.00">
<path fill="#f986c9" d="
  M 44.80 98.92
  Q 30.46 141.43 47.90 184.13
  Q 47.94 184.24 47.89 184.45
  Q 47.82 184.75 47.68 184.48
  C 4.61 103.62 62.22 8.81 153.16 9.38
  C 193.41 9.63 229.23 31.25 251.20 64.59
  Q 254.26 69.23 255.76 73.05
  Q 256.75 75.54 255.29 73.29
  C 229.76 33.64 184.18 13.44 137.56 20.74
  C 94.92 27.43 58.57 58.09 44.80 98.92
  Z"
/>
<path fill="#f986c9" d="
  M 253.42 158.23
  L 233.55 172.71
  Q 233.00 173.11 233.21 172.47
  L 242.69 143.58
  A 2.30 2.29 -63.0 0 0 241.86 141.01
  L 217.36 123.16
  A 0.21 0.20 -26.5 0 1 217.49 122.79
  L 248.70 122.94
  Q 249.37 122.95 249.57 122.31
  L 259.29 92.23
  Q 259.37 91.96 259.52 92.20
  Q 260.32 93.53 260.93 95.52
  Q 265.02 108.85 269.31 121.79
  Q 269.68 122.90 270.86 122.90
  L 301.70 122.74
  A 0.18 0.18 0.0 0 1 301.80 123.07
  L 276.21 141.62
  A 0.72 0.71 -27.3 0 0 275.95 142.43
  L 285.44 171.33
  Q 286.06 173.21 284.46 172.04
  L 264.24 157.26
  A 0.84 0.83 -65.5 0 0 262.93 157.75
  C 258.88 175.80 250.84 192.74 239.36 207.32
  Q 206.49 249.07 153.21 255.79
  Q 143.16 257.06 133.25 256.54
  C 74.32 253.42 23.35 210.07 13.80 150.95
  Q 5.82 101.51 33.03 58.74
  Q 33.66 57.75 33.39 58.83
  Q 33.31 59.13 33.12 59.47
  C 5.85 108.73 14.63 168.04 54.92 207.33
  C 97.49 248.84 165.66 252.35 212.84 216.13
  Q 241.60 194.06 254.21 158.83
  A 0.52 0.52 0.0 0 0 253.42 158.23
  Z"
/>
<path fill="#f986c9" d="
  M 881.80 96.04
  L 837.48 157.93
  A 1.14 1.14 0.0 0 1 835.63 157.93
  L 791.00 96.04
  Q 790.44 95.26 790.44 96.22
  L 790.44 185.40
  Q 790.44 186.00 789.84 186.00
  L 785.98 186.00
  Q 785.22 186.00 785.22 185.23
  L 785.22 81.00
  A 0.76 0.73 -6.4 0 1 785.82 80.28
  Q 786.01 80.24 786.34 80.38
  Q 786.56 80.47 786.73 80.71
  Q 811.47 115.11 836.26 149.62
  A 0.37 0.34 -45.8 0 0 836.84 149.59
  L 886.38 80.48
  A 0.69 0.69 0.0 0 1 887.63 80.88
  L 887.63 185.44
  Q 887.63 186.00 887.06 186.00
  L 882.93 186.00
  Q 882.37 185.99 882.37 185.43
  L 882.37 96.22
  Q 882.37 95.23 881.80 96.04
  Z"
/>
<path fill="#f986c9" d="
  M 1227.95 86.94
  A 0.25 0.25 0.0 0 0 1227.75 86.53
  L 1182.58 86.53
  Q 1182.00 86.53 1182.00 85.95
  L 1182.00 81.99
  Q 1182.00 81.48 1182.51 81.48
  L 1234.28 81.48
  Q 1234.84 81.48 1234.93 82.03
  C 1235.31 84.49 1235.33 86.19 1233.61 88.22
  Q 1218.58 105.89 1203.64 123.53
  A 0.33 0.32 15.7 0 0 1203.94 124.06
  C 1223.49 121.27 1240.67 132.02 1241.51 152.25
  C 1242.32 171.84 1229.30 186.40 1209.25 186.97
  Q 1187.90 187.58 1174.48 171.23
  Q 1174.07 170.73 1174.62 170.40
  L 1178.05 168.31
  Q 1178.50 168.03 1178.84 168.43
  C 1189.59 180.93 1207.21 185.82 1221.96 178.20
  C 1234.93 171.49 1239.43 155.50 1233.47 142.62
  C 1227.56 129.82 1213.02 127.08 1199.63 128.79
  Q 1199.05 128.86 1198.66 128.43
  L 1196.28 125.84
  Q 1195.86 125.38 1196.26 124.90
  L 1227.95 86.94
  Z"
/>
<path fill="#f986c9" d="
  M 389.66 180.73
  C 407.82 180.88 426.87 182.87 442.71 172.47
  C 462.88 159.22 466.61 130.37 456.47 109.81
  C 448.71 94.07 429.82 86.21 412.24 86.37
  Q 398.41 86.49 384.55 86.57
  Q 383.98 86.58 383.98 86.00
  L 383.98 82.02
  Q 383.98 81.52 384.48 81.52
  Q 407.70 81.38 415.75 81.53
  C 449.98 82.18 471.02 107.07 467.70 140.62
  C 465.06 167.27 445.44 183.40 419.75 185.75
  Q 412.64 186.40 384.38 185.86
  Q 383.98 185.85 383.98 185.45
  L 383.98 140.25
  Q 383.98 139.72 384.50 139.72
  L 388.69 139.72
  A 0.47 0.47 0.0 0 1 389.16 140.19
  L 389.16 180.22
  Q 389.16 180.73 389.66 180.73
  Z"
/>
<path fill="#f986c9" d="
  M 499.26 146.00
  L 499.26 185.50
  Q 499.26 186.00 498.76 186.00
  L 494.86 185.99
  Q 494.22 185.99 494.22 185.36
  L 494.22 140.75
  Q 494.22 140.22 494.75 140.22
  Q 512.80 140.15 530.74 140.20
  C 548.43 140.25 561.78 128.46 560.03 109.75
  C 558.75 96.10 546.32 87.01 533.24 86.80
  Q 525.38 86.67 494.76 86.77
  Q 494.23 86.77 494.23 86.24
  L 494.22 82.02
  Q 494.22 81.51 494.73 81.51
  Q 523.16 81.40 532.24 81.51
  C 553.16 81.76 568.79 97.98 565.14 119.27
  Q 562.12 136.87 544.11 143.34
  A 0.30 0.29 -24.7 0 0 543.95 143.76
  L 567.46 185.39
  Q 567.80 186.00 567.11 186.00
  L 562.46 186.00
  Q 561.82 186.00 561.51 185.45
  L 538.78 145.24
  Q 538.51 144.76 537.96 144.83
  C 535.76 145.10 533.54 145.40 531.33 145.38
  Q 515.57 145.27 499.82 145.44
  Q 499.26 145.44 499.26 146.00
  Z"
/>
<rect fill="#f986c9" x="592.46" y="81.48" width="68.52" height="5.26" rx="0.34"/>
<path fill="#f986c9" d="
  M 721.36 90.51
  L 684.58 185.78
  A 0.34 0.34 0.0 0 1 684.27 186.00
  L 679.46 185.99
  A 0.34 0.34 0.0 0 1 679.15 185.53
  L 719.21 81.70
  A 0.34 0.34 0.0 0 1 719.52 81.48
  L 723.84 81.48
  A 0.34 0.34 0.0 0 1 724.15 81.70
  L 764.21 185.54
  A 0.34 0.34 0.0 0 1 763.89 186.00
  L 759.08 186.00
  A 0.34 0.34 0.0 0 1 758.77 185.78
  L 722.00 90.51
  A 0.34 0.34 0.0 0 0 721.36 90.51
  Z"
/>
<path fill="#f986c9" d="
  M 968.55 129.33
  A 0.32 0.32 0.0 0 0 968.58 129.94
  C 983.59 134.05 990.42 146.25 988.82 161.25
  C 987.07 177.71 973.34 185.78 957.26 185.90
  Q 937.73 186.05 918.21 185.99
  Q 917.71 185.99 917.71 185.49
  L 917.71 128.26
  Q 917.71 127.75 918.23 127.75
  Q 936.78 127.77 955.22 127.67
  C 965.50 127.62 974.72 122.89 977.03 112.57
  C 980.63 96.49 970.19 86.59 954.75 86.58
  Q 936.52 86.56 918.27 86.49
  Q 917.76 86.48 917.75 85.97
  L 917.73 82.02
  Q 917.73 81.51 918.24 81.51
  Q 936.12 81.44 954.00 81.50
  C 965.65 81.53 976.01 85.51 981.22 96.50
  C 987.04 108.78 981.54 124.30 968.55 129.33
  Z
  M 922.80 133.36
  L 922.96 180.40
  A 0.46 0.46 0.0 0 0 923.42 180.85
  L 959.34 180.73
  A 24.22 22.62 -0.2 0 0 983.48 158.02
  L 983.48 155.30
  A 24.22 22.62 -0.2 0 0 959.18 132.77
  L 923.26 132.89
  A 0.46 0.46 0.0 0 0 922.80 133.36
  Z"
/>
<path fill="#f986c9" d="
  M 1045.39 144.60
  L 1080.45 81.96
  Q 1080.72 81.48 1081.28 81.48
  L 1085.91 81.48
  Q 1086.71 81.48 1086.32 82.18
  L 1048.48 149.79
  A 3.93 3.92 -45.0 0 1 1041.63 149.79
  L 1003.69 82.01
  Q 1003.39 81.49 1003.99 81.49
  L 1008.69 81.48
  A 0.88 0.87 -14.4 0 1 1009.46 81.93
  L 1044.69 144.60
  Q 1045.05 145.22 1045.39 144.60
  Z"
/>
<rect fill="#f986c9" x="1092.74" y="81.48" width="75.54" height="5.26" rx="0.26"/>
<rect fill="#f986c9" x="1128.00" y="109.37" width="5.02" height="76.62" rx="0.37"/>
<rect fill="#f986c9" x="592.45" y="131.23" width="63.92" height="5.04" rx="0.29"/>
<rect fill="#f986c9" x="1042.49" y="167.75" width="5.14" height="18.24" rx="0.40"/>
<rect fill="#f986c9" x="592.44" y="180.76" width="69.44" height="5.24" rx="0.32"/>
</svg>
