<?xml version="1.0" encoding="UTF-8" standalone="no"?>
<!DOCTYPE svg PUBLIC "-//W3C//DTD SVG 1.1//EN" "http://www.w3.org/Graphics/SVG/1.1/DTD/svg11.dtd">
<svg xmlns="http://www.w3.org/2000/svg" version="1.1" viewBox="0.00 0.00 512.00 512.00">
<path fill="#f986c9" d="
  M 112.46 334.73
  Q 102.44 316.99 98.51 304.51
  C 77.72 238.45 96.30 168.20 148.12 122.13
  Q 184.90 89.45 233.26 81.30
  C 242.76 79.70 253.08 78.40 262.78 78.62
  C 326.68 80.12 383.65 114.92 413.02 171.41
  Q 413.29 171.94 413.26 172.09
  A 0.56 0.56 0.0 0 1 412.25 172.27
  Q 387.25 134.19 346.93 113.11
  Q 303.79 90.55 253.27 95.23
  Q 201.62 100.01 161.64 132.66
  C 134.87 154.52 115.62 183.23 105.39 216.14
  C 100.58 231.63 99.49 247.60 98.99 263.75
  C 98.41 282.59 100.73 300.33 106.31 318.19
  C 107.83 323.03 110.61 329.09 112.56 334.68
  A 0.06 0.05 -70.3 0 1 112.46 334.73
  Z"
/>
<path fill="#f986c9" d="
  M 410.13 297.27
  A 0.67 0.67 0.0 0 0 409.07 296.76
  L 381.59 316.65
  A 0.61 0.61 0.0 0 1 380.63 316.09
  Q 380.87 313.79 381.72 311.24
  Q 387.69 293.14 393.52 275.00
  C 394.49 272.00 392.27 270.62 389.66 268.70
  Q 374.00 257.17 357.99 245.49
  A 0.52 0.52 0.0 0 1 358.18 244.56
  Q 359.68 244.23 361.50 244.24
  Q 381.49 244.25 401.14 244.16
  A 3.16 3.16 0.0 0 0 404.13 241.99
  L 417.67 201.20
  Q 418.64 198.26 419.63 201.20
  Q 425.77 219.59 432.02 239.49
  C 433.41 243.90 435.39 244.22 439.89 244.21
  Q 459.59 244.18 479.17 244.23
  A 0.61 0.61 0.0 0 1 479.53 245.34
  L 444.51 270.94
  A 3.11 3.10 -26.9 0 0 443.38 274.39
  L 456.13 314.20
  Q 456.81 316.32 454.78 315.40
  C 453.43 314.78 451.73 313.86 450.40 312.88
  Q 437.91 303.74 425.42 294.92
  A 0.75 0.75 0.0 0 0 424.26 295.32
  C 421.70 304.02 419.15 313.18 415.96 321.16
  Q 389.98 386.12 327.41 418.87
  Q 299.66 433.39 265.74 437.35
  Q 253.86 438.74 244.50 439.04
  Q 235.16 439.33 224.53 438.11
  C 92.23 422.87 18.40 279.65 83.00 162.78
  Q 83.70 161.51 84.84 161.16
  A 0.39 0.39 0.0 0 1 85.31 161.67
  Q 82.02 170.14 78.85 178.31
  Q 70.35 200.23 68.89 222.75
  C 68.01 236.27 67.61 251.23 69.67 264.68
  C 76.71 310.69 100.02 350.69 136.84 379.22
  Q 171.11 405.79 213.01 413.27
  Q 234.52 417.10 260.26 415.04
  Q 295.43 412.23 327.83 394.24
  Q 386.70 361.56 409.94 298.24
  Q 410.15 297.68 410.13 297.27
  Z"
/>
</svg>
