<svg xmlns="http://www.w3.org/2000/svg" xmlns:xlink="http://www.w3.org/1999/xlink" width="500" zoomAndPan="magnify" viewBox="0 0 375 374.999991" height="500" preserveAspectRatio="xMidYMid meet" version="1.0"><defs><clipPath id="f63575588b"><path d="M 3.808594 3.808594 L 371.308594 3.808594 L 371.308594 371.308594 L 3.808594 371.308594 Z M 3.808594 3.808594 " clip-rule="nonzero"/></clipPath></defs><g clip-path="url(#f63575588b)"><path fill="#f4a7bb" d="M 187.464844 3.808594 C 85.945312 3.808594 3.808594 86.035156 3.808594 187.558594 C 3.808594 289.082031 85.945312 371.308594 187.464844 371.308594 C 288.988281 371.308594 371.308594 289.082031 371.308594 187.558594 C 371.308594 86.035156 288.988281 3.808594 187.464844 3.808594 Z M 265.285156 297.808594 L 187.558594 250.953125 L 109.832031 297.808594 L 130.414062 209.425781 L 61.875 149.980469 L 152.277344 142.265625 L 187.558594 58.933594 L 222.839844 142.265625 L 313.242188 149.980469 L 244.703125 209.425781 Z M 265.285156 297.808594 " fill-opacity="1" fill-rule="nonzero"/></g></svg>