<?xml version="1.0" standalone="no"?>
<!DOCTYPE svg PUBLIC "-//W3C//DTD SVG 20010904//EN"
 "http://www.w3.org/TR/2001/REC-SVG-20010904/DTD/svg10.dtd">
<svg version="1.0" xmlns="http://www.w3.org/2000/svg"
 width="100.000000pt" height="100.000000pt" viewBox="0 0 100.000000 100.000000"
 preserveAspectRatio="xMidYMid meet">
<metadata>
Created by potrace 1.10, written by Peter Selinger 2001-2011
</metadata>
<g transform="translate(0.000000,100.000000) scale(0.100000,-0.100000)"
fill="#000000" stroke="none">
<path d="M427 766 c-140 -39 -224 -203 -172 -336 l14 -35 -7 40 c-18 100 5
181 70 241 105 99 253 97 356 -6 32 -32 39 -36 25 -15 -69 99 -178 141 -286
111z"/>
<path d="M213 623 c-21 -49 -22 -166 -1 -214 22 -50 83 -116 132 -142 55 -29
193 -31 246 -3 68 36 140 124 140 171 0 19 9 19 32 -2 24 -22 32 -12 16 22
-11 25 -10 29 17 51 l30 24 -37 0 c-32 0 -37 3 -43 30 -4 17 -10 30 -15 30 -4
0 -10 -13 -13 -30 -6 -27 -10 -30 -44 -30 l-38 0 29 -23 c27 -22 28 -26 18
-56 l-12 -33 26 17 26 17 -23 -42 c-34 -61 -94 -106 -167 -126 -55 -15 -69
-16 -115 -4 -159 40 -245 191 -192 339 18 51 10 54 -12 4z m540 -110 c8 -14
-12 -53 -27 -53 -13 0 -28 44 -18 55 8 8 40 6 45 -2z"/>
</g>
</svg>
