<svg version="1.2" xmlns="http://www.w3.org/2000/svg" viewBox="0 0 250 250" width="250" height="250" fill="#A7BAF2">
    <path fill-rule="evenodd"
          d="m128 1.5c14.1 0.3 18 0.7 26.5 3 5.5 1.5 13.2 4 17 5.5 3.8 1.5 9.9 4.5 13.5 6.5 3.6 2 9.4 5.8 13 8.3 3.6 2.5 10.3 8.5 15 13.2 4.7 4.7 11 12.1 14 16.5 3 4.4 7.5 12.5 10.1 18 2.6 5.5 5.9 14 7.2 19 1.4 5 3.1 13 3.8 18 0.7 5.5 0.9 14.1 0.6 22-0.4 9.4-1.3 15.8-3.2 23-1.5 5.5-4 13.2-5.5 17-1.5 3.8-4.5 9.9-6.5 13.5-2 3.6-5.8 9.4-8.3 13-2.5 3.6-8.2 10.1-12.7 14.5-4.4 4.5-10.9 10.2-14.5 12.7-3.6 2.5-9.4 6.3-13 8.3-3.6 2-9.7 5-13.5 6.5-3.8 1.5-11.7 4.1-17.5 5.6-9.7 2.6-11.9 2.9-29 2.9-16.8 0-19.5-0.3-29-2.7-5.8-1.5-15-4.7-20.5-7.1-5.5-2.4-13.1-6.4-17-8.8-3.9-2.5-10.4-7.4-14.5-11-4.1-3.5-10.3-9.8-13.8-13.9-3.5-4.1-8.7-11.3-11.5-16-2.8-4.7-6.6-12.1-8.4-16.5-1.8-4.4-4.6-12.7-6.1-18.5-2.5-9.7-2.7-12-2.7-29.5 0-17.7 0.2-19.7 2.8-29.5 1.6-5.8 3.4-11.8 4.2-13.5 0.7-1.7 2.7-6.2 4.5-10 1.7-3.8 5.1-10 7.6-13.7 2.4-3.8 7.2-10 10.7-14 3.4-4 9.6-10.1 13.7-13.6 4.1-3.5 11.6-8.8 16.5-11.7 5-2.9 12.4-6.7 16.5-8.3 4.1-1.7 12-4.2 17.5-5.6 5.5-1.4 11.3-2.7 13-3 1.7-0.2 10.4-0.3 19.5-0.1zm-14.5 66c-5.8 13.5-10.5 25-10.5 25.5 0 0.6-0.3 1.2-0.7 1.4-0.5 0.3-4.8 0.9-9.8 1.5-4.9 0.6-18 1.8-29 2.6-11 0.9-20.1 1.7-20.3 1.8-0.1 0.1 4.8 4.7 11 10.2 6.2 5.6 16.1 14.2 22.1 19.3 5.9 5.1 10.7 9.9 10.7 10.7 0 0.8-0.6 3.9-1.4 6.8-0.8 2.8-2.6 10.6-4.1 17.2-1.5 6.6-3.8 16.5-5.1 22-1.3 5.5-2.3 10.1-2.2 10.3 0.2 0.1 11.7-6.5 25.6-14.8l25.2-15c39.1 23.3 50.6 29.9 50.8 29.8 0.1-0.2-0.9-4.8-2.2-10.3-1.3-5.5-3.6-15.4-5.1-22-1.5-6.6-3.3-14.4-4.1-17.2-0.8-2.9-1.4-6-1.4-6.8 0-0.8 4.6-5.4 10.2-10.2 5.6-4.9 15.5-13.5 22-19.3 6.5-5.8 11.8-10.6 11.6-10.7-0.2-0.1-9.3-0.9-20.3-1.8-11-0.8-24.1-2-29-2.6-4.9-0.6-9.3-1.2-9.7-1.5-0.5-0.2-0.8-0.8-0.8-1.4 0-0.5-4.7-12-10.5-25.5-5.8-13.5-10.5-24.9-10.5-25.5 0-0.5-0.4-1-1-1-0.5 0-1 0.5-1 1 0 0.6-4.7 12-10.5 25.5z"/>
</svg>